Coordinates
version=1
nRows=16
nColumns=40
inDegrees=yes

Units are S.I. units (second, meters, Newtons, ...)
Angles are in degrees.

endheader
time	pelvis_tilt	pelvis_list	pelvis_rotation	pelvis_tx	pelvis_ty	pelvis_tz	hip_flexion_r	hip_adduction_r	hip_rotation_r	knee_angle_r	knee_angle_r_beta	ankle_angle_r	subtalar_angle_r	mtp_angle_r	hip_flexion_l	hip_adduction_l	hip_rotation_l	knee_angle_l	knee_angle_l_beta	ankle_angle_l	subtalar_angle_l	mtp_angle_l	lumbar_extension	lumbar_bending	lumbar_rotation	arm_flex_r	arm_add_r	arm_rot_r	elbow_flex_r	pro_sup_r	wrist_flex_r	wrist_dev_r	arm_flex_l	arm_add_l	arm_rot_l	elbow_flex_l	pro_sup_l	wrist_flex_l	wrist_dev_l
      1.02000000	     -3.08326953	     -2.19171872	     -2.82404108	     -0.12177352	      0.87408734	     -1.41219364	     -5.85560094	      2.20245205	    -10.18482553	    -25.21128580	     -0.44001995	     11.63758750	      3.20243119	     -5.49046485	     33.44435389	      6.03634032	     16.14180694	    -26.45841518	     -0.46178646	      5.37679582	      7.92744896	      9.10301986	     -2.62968596	     -0.03715430	      5.47922510	     -0.64280477	    -14.25920456	    -20.80344884	     42.65262806	     89.95437384	      0.00000000	      0.00000000	    -12.72500432	      4.67627306	     30.21596906	     17.61133481	     89.95437384	      0.00000000	      0.00000000
      1.03000000	     -3.26815645	     -2.07884960	     -2.94990871	     -0.11076548	      0.87302710	     -1.41314612	     -5.89402012	      1.99082394	     -9.38817815	    -26.07155913	     -0.45503455	     10.81542347	      2.02816290	     -5.48812771	     33.34182224	      5.39087125	     14.70111203	    -27.00325407	     -0.47129569	      4.52025562	     10.52751999	      8.75589247	     -2.27385122	     -0.26554694	      5.47128846	     -0.92822751	    -14.08917596	    -20.79460589	     42.57534391	     89.95437384	      0.00000000	      0.00000000	    -12.85113986	      4.73757285	     30.19586740	     17.66419311	     89.95437384	      0.00000000	      0.00000000
      1.04000000	     -3.25578175	     -2.07195941	     -3.02256244	     -0.09956759	      0.87233296	     -1.41396632	     -6.10497630	      1.82123839	     -8.93007748	    -27.05181770	     -0.47214329	     10.09040869	      1.85862746	     -5.34844740	     33.19129445	      5.26073865	     14.30844086	    -27.75054930	     -0.48433845	      3.63683747	     10.61138100	      8.60268013	     -2.12893649	     -0.42124038	      5.31997699	     -1.07711851	    -13.87912261	    -20.68061673	     42.32347760	     89.95437384	      0.00000000	      0.00000000	    -13.01153221	      4.83295382	     30.02555049	     17.79745181	     89.95437384	      0.00000000	      0.00000000
      1.05000000	     -3.33988666	     -1.97148083	     -3.15158642	     -0.08862739	      0.87191657	     -1.41481441	     -5.98741314	      1.55493581	     -8.44512105	    -28.30739857	     -0.49405731	      8.85754203	      1.20435343	     -5.10457877	     33.10686050	      5.03756689	     13.73794812	    -28.29573821	     -0.49385380	      2.36356769	     11.30247417	      8.47293140	     -1.86736997	     -0.67593279	      5.22411709	     -1.05513420	    -13.62323876	    -20.65402974	     41.65283667	     89.95437384	      0.00000000	      0.00000000	    -12.93710941	      4.97492244	     29.95862711	     17.56322257	     89.95437384	      0.00000000	      0.00000000
      1.06000000	     -3.49391252	     -1.63235801	     -3.13601341	     -0.07763222	      0.87154462	     -1.41626229	     -5.59249339	      0.99783827	     -8.19152252	    -29.89438261	     -0.52175540	      7.43212644	      0.16426866	     -4.75839802	     33.10141688	      4.50346970	     13.04973655	    -28.94923581	     -0.50525948	      1.25934725	     11.60925969	      8.18877652	     -1.53789207	     -1.15914964	      4.99936163	     -1.22144548	    -13.28755143	    -20.78326081	     41.22404546	     89.95437384	      0.00000000	      0.00000000	    -12.84469603	      5.12423199	     30.03442784	     17.47963314	     89.95437384	      0.00000000	      0.00000000
      1.07000000	     -3.48668446	     -1.31831191	     -3.04585785	     -0.06651524	      0.87157720	     -1.41785215	     -5.20612907	      0.40267646	     -8.27667149	    -31.76384130	     -0.55438361	      5.90968571	     -0.55723403	     -4.40813605	     33.00558339	      4.12712203	     12.82827603	    -29.99143580	     -0.52344930	      0.91189652	     11.60743830	      7.85609888	     -1.39603308	     -1.62449940	      4.67247780	     -1.35168986	    -12.99051032	    -20.77290973	     40.73825672	     89.95437384	      0.00000000	      0.00000000	    -12.73320338	      5.27968906	     30.00307281	     17.46094270	     89.95437384	      0.00000000	      0.00000000
      1.08000000	     -3.42413463	     -1.06788467	     -2.89616378	     -0.05529478	      0.87193926	     -1.41930303	     -4.69475952	     -0.19171852	     -8.75471893	    -33.85661252	     -0.59090936	      3.94104451	     -1.27031763	     -3.97134894	     32.80796013	      3.85359883	     12.89879592	    -31.09877013	     -0.54277593	      1.13527651	     11.89321494	      7.54851650	     -1.32492038	     -2.03930877	      4.34669187	     -1.55018245	    -12.60574418	    -20.95357938	     40.25515592	     89.95437384	      0.00000000	      0.00000000	    -12.52210111	      5.49223750	     29.98968035	     17.42930702	     89.95437384	      0.00000000	      0.00000000
      1.09000000	     -3.66794908	     -0.63051475	     -2.69329694	     -0.04437334	      0.87205579	     -1.42089207	     -3.55512610	     -0.99902602	     -9.30629240	    -36.31236834	     -0.63377039	      1.32294101	     -2.65156414	     -3.16898108	     32.73370921	      3.06929290	     12.24455869	    -31.67906737	     -0.55290403	      1.34518475	     12.91198726	      7.32673980	     -0.91802927	     -2.64992644	      3.90819608	     -1.80961718	    -12.12183664	    -21.18584653	     39.80305784	     89.95437384	      0.00000000	      0.00000000	    -12.22520816	      5.72598414	     30.39712377	     17.26704325	     89.95437384	      0.00000000	      0.00000000
      1.10000000	     -3.56634151	     -0.31999389	     -2.38167243	     -0.03322114	      0.87281242	     -1.42280904	     -2.79743211	     -1.76022921	    -10.10870914	    -38.67195707	     -0.67495298	     -1.60974934	     -3.72613746	     -2.12368613	     32.19537630	      2.29452417	     11.48635878	    -32.18023263	     -0.56165101	      1.74257975	     13.40852060	      7.08817780	     -0.90679445	     -3.09788888	      3.40047505	     -2.07035501	    -11.77280908	    -21.27584345	     39.31899898	     89.95437384	      0.00000000	      0.00000000	    -11.87725701	      5.92754915	     30.78547389	     17.28804029	     89.95437384	      0.00000000	      0.00000000
      1.11000000	     -3.38952576	     -0.15598141	     -2.15460292	     -0.02197565	      0.87372250	     -1.42434015	     -2.03713838	     -2.47380912	    -10.98436665	    -41.00462780	     -0.71566576	     -5.44316467	     -4.10712515	     -1.33590818	     31.46212529	      1.87467619	     11.31704138	    -32.59088618	     -0.56881827	      2.47621405	     13.16535598	      6.82035975	     -0.97256282	     -3.39616194	      3.00528686	     -2.35457479	    -11.41527777	    -21.35473987	     38.83218993	     89.95437384	      0.00000000	      0.00000000	    -11.55552614	      6.17722471	     30.65954027	     17.38408871	     89.95437384	      0.00000000	      0.00000000
      1.12000000	     -3.27014166	      0.17224361	     -1.76520649	     -0.01113591	      0.87465573	     -1.42625619	     -1.12426432	     -3.23985014	    -11.54982713	    -43.31588909	     -0.75600488	     -9.84860233	     -5.33190446	     -0.19272346	     30.71514583	      1.07471342	     10.77095317	    -32.78606548	     -0.57222479	      3.00738939	     13.52553251	      6.75315309	     -1.05498204	     -3.87317958	      2.48365040	     -2.72171815	    -11.04939218	    -21.39280215	     38.42897323	     89.95437384	      0.00000000	      0.00000000	    -11.08909469	      6.46921372	     30.63993351	     17.47711887	     89.95437384	      0.00000000	      0.00000000
      1.13000000	     -3.26451934	      0.17390556	     -1.30470936	     -0.00097237	      0.87550406	     -1.42822116	      0.10490725	     -3.46202959	    -11.64847036	    -45.83229548	     -0.79992446	    -12.35629456	     -6.17681201	     10.82845954	     30.13024356	      0.58883444	     10.07585570	    -33.02438133	     -0.57638419	      3.90048189	     13.97776001	      9.18398844	     -1.10020826	     -3.94786697	      1.81096363	     -2.94616173	    -10.82089211	    -21.12006307	     37.98444090	     89.95437384	      0.00000000	      0.00000000	    -10.53235877	      6.67902511	     30.87997633	     17.56936500	     89.95437384	      0.00000000	      0.00000000
      1.14000000	     -3.16295603	      0.36422107	     -0.93830293	      0.00926085	      0.87639751	     -1.43007400	      1.19634060	     -3.94195590	    -11.58465002	    -48.14416571	     -0.84027421	    -14.81988490	     -6.36069699	     11.00136022	     29.33187337	      0.12975540	     10.01399800	    -33.12792069	     -0.57819129	      4.62648511	     13.37952845	      8.84265059	     -1.25343050	     -4.22212514	      1.30270965	     -3.22200792	    -10.51090070	    -21.05670434	     37.54316143	     89.95437384	      0.00000000	      0.00000000	    -10.02982920	      6.96573805	     30.68923205	     17.91414507	     89.95437384	      0.00000000	      0.00000000
      1.15000000	     -2.92481270	      0.22775273	     -0.48024164	      0.01883543	      0.87744557	     -1.43175177	      2.18689027	     -3.88186916	    -11.32522470	    -50.46633693	     -0.88080374	    -15.68542143	     -6.47106614	     10.85642067	     28.43914141	      0.05317689	      9.94271790	    -33.23441796	     -0.58005002	      4.95403747	     12.87719553	      8.56668782	     -1.68182191	     -4.12809739	      0.66478372	     -3.45145056	    -10.26954032	    -20.86440688	     37.29077997	     89.95437384	      0.00000000	      0.00000000	     -9.43244954	      7.22379455	     30.46847852	     18.39784540	     89.95437384	      0.00000000	      0.00000000
      1.16000000	     -3.16401779	      0.73944702	     -0.32729856	      0.02815974	      0.87775024	     -1.43354213	      4.09042487	     -4.74383798	    -11.09486982	    -53.25857907	     -0.92953756	    -16.87336258	     -7.87822413	     10.99074006	     27.90171752	     -0.65831614	     10.13545671	    -33.11008108	     -0.57787993	      6.04714141	     12.52846439	      8.20616363	     -1.47999412	     -4.72197568	      0.37089330	     -3.67889928	    -10.04239334	    -20.48943966	     36.71977034	     89.95437384	      0.00000000	      0.00000000	     -8.73473455	      7.56699569	     30.32866138	     18.64155727	     89.95437384	      0.00000000	      0.00000000
      1.17000000	     -3.19459617	      0.94262097	     -0.11103023	      0.03727020	      0.87829728	     -1.43514619	      5.69055642	     -5.12530535	    -10.89847002	    -55.75603225	     -0.97312634	    -16.54881080	     -9.66376285	     11.00629663	     27.19356027	     -1.04771171	     10.22357688	    -33.00367727	     -0.57602283	      6.52568097	     12.31899993	      7.95289381	     -1.58797549	     -4.95358148	      0.02357918	     -3.87839639	     -9.86047616	    -20.03618214	     36.27606305	     89.95437384	      0.00000000	      0.00000000	     -8.01283172	      7.87455837	     30.14996418	     19.08292444	     89.95437384	      0.00000000	      0.00000000
